M48
; DRILL file {KiCad 6.0.9-3.fc37} date Fri 23 Dec 2022 12:31:16 PM PST
; FORMAT={-:-/ absolute / inch / decimal}
; #@! TF.CreationDate,2022-12-23T12:31:16-08:00
; #@! TF.GenerationSoftware,Kicad,Pcbnew,6.0.9-3.fc37
; #@! TF.FileFunction,Plated,1,2,PTH
FMAT,2
INCH
; #@! TA.AperFunction,Plated,PTH,ComponentDrill
T1C0.0354
; #@! TA.AperFunction,Plated,PTH,ComponentDrill
T2C0.0394
; #@! TA.AperFunction,Plated,PTH,ComponentDrill
T3C0.0433
%
G90
G05
T1
X7.775Y-1.375
X7.775Y-1.725
X7.875Y-1.375
X7.875Y-1.725
T2
X6.775Y-1.35
X6.775Y-1.45
X6.775Y-1.55
X6.775Y-1.65
X6.775Y-1.75
X6.875Y-1.35
X6.875Y-1.45
X6.875Y-1.55
X6.875Y-1.65
X6.875Y-1.75
X7.075Y-1.35
X7.075Y-1.45
X7.075Y-1.55
X7.075Y-1.65
X7.075Y-1.75
X7.175Y-1.35
X7.175Y-1.45
X7.175Y-1.55
X7.175Y-1.65
X7.175Y-1.75
T3
X7.3734Y-1.2955
X7.3734Y-1.4726
X7.3734Y-1.6321
X7.3734Y-1.8093
X7.6293Y-1.2955
X7.6293Y-1.4726
X7.6293Y-1.6321
X7.6293Y-1.8093
T0
M30
